<mxfile host="app.diagrams.net" modified="2022-12-14T05:45:33.324Z" agent="5.0 (Windows NT 10.0; Win64; x64) AppleWebKit/537.36 (KHTML, like Gecko) Chrome/108.0.0.0 Safari/537.36" version="20.6.2" etag="KpWh_QdxokevimOdTeFV" type="github">
  <diagram id="JH6s-0h71Mz1UpdrDSpw" name="第 1 页">
    <mxGraphModel dx="1605" dy="503" grid="1" gridSize="10" guides="1" tooltips="1" connect="1" arrows="1" fold="1" page="1" pageScale="1" pageWidth="827" pageHeight="1169" math="0" shadow="0">
      <root>
        <mxCell id="0" />
        <mxCell id="1" parent="0" />
        <mxCell id="kHK1srl5kfTW7Mx7QT4C-9" style="edgeStyle=orthogonalEdgeStyle;rounded=0;orthogonalLoop=1;jettySize=auto;html=1;exitX=1;exitY=0.5;exitDx=0;exitDy=0;entryX=0;entryY=0.5;entryDx=0;entryDy=0;" edge="1" parent="1" source="kHK1srl5kfTW7Mx7QT4C-1" target="kHK1srl5kfTW7Mx7QT4C-8">
          <mxGeometry relative="1" as="geometry" />
        </mxCell>
        <mxCell id="kHK1srl5kfTW7Mx7QT4C-29" style="edgeStyle=orthogonalEdgeStyle;rounded=0;orthogonalLoop=1;jettySize=auto;html=1;exitX=1;exitY=0.5;exitDx=0;exitDy=0;entryX=1;entryY=0.5;entryDx=0;entryDy=0;" edge="1" parent="1" source="kHK1srl5kfTW7Mx7QT4C-1" target="kHK1srl5kfTW7Mx7QT4C-23">
          <mxGeometry relative="1" as="geometry">
            <Array as="points">
              <mxPoint x="310" y="320" />
              <mxPoint x="310" y="415" />
            </Array>
          </mxGeometry>
        </mxCell>
        <mxCell id="kHK1srl5kfTW7Mx7QT4C-1" value="波峰和波谷位置定位和过滤" style="rounded=0;whiteSpace=wrap;html=1;" vertex="1" parent="1">
          <mxGeometry x="210" y="290" width="90" height="60" as="geometry" />
        </mxCell>
        <mxCell id="kHK1srl5kfTW7Mx7QT4C-3" style="edgeStyle=orthogonalEdgeStyle;rounded=0;orthogonalLoop=1;jettySize=auto;html=1;exitX=1;exitY=0.5;exitDx=0;exitDy=0;entryX=0;entryY=0.5;entryDx=0;entryDy=0;" edge="1" parent="1" source="kHK1srl5kfTW7Mx7QT4C-2" target="kHK1srl5kfTW7Mx7QT4C-1">
          <mxGeometry relative="1" as="geometry" />
        </mxCell>
        <mxCell id="kHK1srl5kfTW7Mx7QT4C-2" value="多目标运动轨迹" style="rounded=0;whiteSpace=wrap;html=1;" vertex="1" parent="1">
          <mxGeometry x="80" y="290" width="90" height="60" as="geometry" />
        </mxCell>
        <mxCell id="kHK1srl5kfTW7Mx7QT4C-16" style="edgeStyle=orthogonalEdgeStyle;rounded=0;orthogonalLoop=1;jettySize=auto;html=1;exitX=0;exitY=0.5;exitDx=0;exitDy=0;entryX=1;entryY=0.5;entryDx=0;entryDy=0;" edge="1" parent="1" source="kHK1srl5kfTW7Mx7QT4C-6" target="kHK1srl5kfTW7Mx7QT4C-12">
          <mxGeometry relative="1" as="geometry">
            <Array as="points">
              <mxPoint x="318" y="475" />
            </Array>
          </mxGeometry>
        </mxCell>
        <mxCell id="kHK1srl5kfTW7Mx7QT4C-17" value="Y" style="edgeLabel;html=1;align=center;verticalAlign=middle;resizable=0;points=[];" vertex="1" connectable="0" parent="kHK1srl5kfTW7Mx7QT4C-16">
          <mxGeometry x="-0.1631" relative="1" as="geometry">
            <mxPoint as="offset" />
          </mxGeometry>
        </mxCell>
        <mxCell id="kHK1srl5kfTW7Mx7QT4C-28" style="edgeStyle=orthogonalEdgeStyle;rounded=0;orthogonalLoop=1;jettySize=auto;html=1;" edge="1" parent="1" source="kHK1srl5kfTW7Mx7QT4C-6">
          <mxGeometry relative="1" as="geometry">
            <mxPoint x="210" y="320" as="targetPoint" />
            <Array as="points">
              <mxPoint x="450" y="450" />
              <mxPoint x="450" y="260" />
              <mxPoint x="190" y="260" />
              <mxPoint x="190" y="320" />
            </Array>
          </mxGeometry>
        </mxCell>
        <mxCell id="kHK1srl5kfTW7Mx7QT4C-6" value="峰值阈值和时间间隔阈值是否满足？" style="rhombus;whiteSpace=wrap;html=1;" vertex="1" parent="1">
          <mxGeometry x="318.25" y="385" width="113.5" height="130" as="geometry" />
        </mxCell>
        <mxCell id="kHK1srl5kfTW7Mx7QT4C-27" style="edgeStyle=orthogonalEdgeStyle;rounded=0;orthogonalLoop=1;jettySize=auto;html=1;exitX=0.5;exitY=1;exitDx=0;exitDy=0;entryX=0.5;entryY=0;entryDx=0;entryDy=0;" edge="1" parent="1" source="kHK1srl5kfTW7Mx7QT4C-8" target="kHK1srl5kfTW7Mx7QT4C-6">
          <mxGeometry relative="1" as="geometry" />
        </mxCell>
        <mxCell id="kHK1srl5kfTW7Mx7QT4C-8" value="目标运动轨迹连续性分析" style="rounded=0;whiteSpace=wrap;html=1;" vertex="1" parent="1">
          <mxGeometry x="330" y="290" width="90" height="60" as="geometry" />
        </mxCell>
        <mxCell id="kHK1srl5kfTW7Mx7QT4C-12" value="钻杆数更新" style="rounded=0;whiteSpace=wrap;html=1;" vertex="1" parent="1">
          <mxGeometry x="60" y="445" width="90" height="60" as="geometry" />
        </mxCell>
        <mxCell id="kHK1srl5kfTW7Mx7QT4C-21" style="edgeStyle=orthogonalEdgeStyle;rounded=0;orthogonalLoop=1;jettySize=auto;html=1;exitX=1;exitY=0.5;exitDx=0;exitDy=0;exitPerimeter=0;entryX=0;entryY=0.5;entryDx=0;entryDy=0;" edge="1" parent="1" source="kHK1srl5kfTW7Mx7QT4C-20" target="kHK1srl5kfTW7Mx7QT4C-2">
          <mxGeometry relative="1" as="geometry" />
        </mxCell>
        <mxCell id="kHK1srl5kfTW7Mx7QT4C-20" value="开始" style="strokeWidth=2;html=1;shape=mxgraph.flowchart.start_1;whiteSpace=wrap;fillStyle=dots;" vertex="1" parent="1">
          <mxGeometry x="-30" y="290" width="80" height="60" as="geometry" />
        </mxCell>
        <mxCell id="kHK1srl5kfTW7Mx7QT4C-22" value="结束" style="strokeWidth=2;html=1;shape=mxgraph.flowchart.start_1;whiteSpace=wrap;fillStyle=dots;" vertex="1" parent="1">
          <mxGeometry x="-30" y="385" width="80" height="60" as="geometry" />
        </mxCell>
        <mxCell id="kHK1srl5kfTW7Mx7QT4C-24" style="edgeStyle=orthogonalEdgeStyle;rounded=0;orthogonalLoop=1;jettySize=auto;html=1;entryX=1;entryY=0.5;entryDx=0;entryDy=0;entryPerimeter=0;" edge="1" parent="1" source="kHK1srl5kfTW7Mx7QT4C-23" target="kHK1srl5kfTW7Mx7QT4C-22">
          <mxGeometry relative="1" as="geometry" />
        </mxCell>
        <mxCell id="kHK1srl5kfTW7Mx7QT4C-25" value="Y" style="edgeLabel;html=1;align=center;verticalAlign=middle;resizable=0;points=[];" vertex="1" connectable="0" parent="kHK1srl5kfTW7Mx7QT4C-24">
          <mxGeometry x="-0.0967" relative="1" as="geometry">
            <mxPoint as="offset" />
          </mxGeometry>
        </mxCell>
        <mxCell id="kHK1srl5kfTW7Mx7QT4C-30" style="edgeStyle=orthogonalEdgeStyle;rounded=0;orthogonalLoop=1;jettySize=auto;html=1;exitX=0.5;exitY=0;exitDx=0;exitDy=0;" edge="1" parent="1" source="kHK1srl5kfTW7Mx7QT4C-23">
          <mxGeometry relative="1" as="geometry">
            <mxPoint x="210" y="320" as="targetPoint" />
            <Array as="points">
              <mxPoint x="236" y="360" />
              <mxPoint x="190" y="360" />
              <mxPoint x="190" y="320" />
            </Array>
          </mxGeometry>
        </mxCell>
        <mxCell id="kHK1srl5kfTW7Mx7QT4C-31" value="N" style="edgeLabel;html=1;align=center;verticalAlign=middle;resizable=0;points=[];" vertex="1" connectable="0" parent="kHK1srl5kfTW7Mx7QT4C-30">
          <mxGeometry x="-0.1562" y="-1" relative="1" as="geometry">
            <mxPoint as="offset" />
          </mxGeometry>
        </mxCell>
        <mxCell id="kHK1srl5kfTW7Mx7QT4C-23" value="是否完成所有数据分析?" style="rhombus;whiteSpace=wrap;html=1;" vertex="1" parent="1">
          <mxGeometry x="190" y="365" width="91.75" height="100" as="geometry" />
        </mxCell>
      </root>
    </mxGraphModel>
  </diagram>
</mxfile>
